<svg width="31" height="30" viewBox="0 0 31 30" fill="none" xmlns="http://www.w3.org/2000/svg">
<path d="M20.5021 26.2547H23.0031C25.0751 26.2547 26.7547 24.5751 26.7547 22.5031V16.2505" stroke="#323232" stroke-width="1.5" stroke-linecap="round" stroke-linejoin="round"/>
<path d="M4.24532 11.2484V8.7474C4.24532 6.67547 5.92495 4.99583 7.99688 4.99583H12.999" stroke="#323232" stroke-width="1.5" stroke-linecap="round" stroke-linejoin="round"/>
<path d="M9.87266 12.499V15" stroke="#323232" stroke-width="1.5" stroke-linecap="round" stroke-linejoin="round"/>
<path d="M6.62726 18.7516V16.2505C6.62726 15.5599 7.18714 15 7.87778 15H11.6293C12.32 15 12.8799 15.5599 12.8799 16.2505V18.7516" stroke="#323232" stroke-width="1.5" stroke-linecap="round" stroke-linejoin="round"/>
<path d="M7.99688 22.5031H12.0819" stroke="#323232" stroke-width="1.5" stroke-linecap="round" stroke-linejoin="round"/>
<path d="M7.99688 26.2547H11.7484" stroke="#323232" stroke-width="1.5" stroke-linecap="round" stroke-linejoin="round"/>
<path d="M15.5 26.2547V19.9187C15.5 19.2741 14.9774 18.7516 14.3329 18.7516H5.41246C4.76787 18.7516 4.24532 19.2741 4.24532 19.9187V26.2547" stroke="#323232" stroke-width="1.5" stroke-linecap="round" stroke-linejoin="round"/>
<ellipse cx="21.7526" cy="8.7474" rx="5.00208" ry="5.00208" stroke="#323232" stroke-width="1.5" stroke-linecap="round" stroke-linejoin="round"/>
<path d="M23.4346 7.75699L21.3337 9.85661L20.0707 8.59734" stroke="#323232" stroke-width="1.5" stroke-linecap="round" stroke-linejoin="round"/>
</svg>
