<svg width="31" height="30" viewBox="0 0 31 30" fill="none" xmlns="http://www.w3.org/2000/svg">
<path d="M4.24532 23.7536C4.24532 25.1349 5.36507 26.2547 6.74636 26.2547" stroke="#323232" stroke-width="1.5" stroke-linecap="round" stroke-linejoin="round"/>
<path d="M4.24532 6.24636V23.7536" stroke="#323232" stroke-width="1.5" stroke-linecap="round" stroke-linejoin="round"/>
<path d="M11.7484 26.2547H6.74635" stroke="#323232" stroke-width="1.5" stroke-linecap="round" stroke-linejoin="round"/>
<path d="M26.7547 6.24636C26.7547 4.86507 25.6349 3.74532 24.2536 3.74532" stroke="#323232" stroke-width="1.5" stroke-linecap="round" stroke-linejoin="round"/>
<path d="M26.7547 9.99792V6.24636" stroke="#323232" stroke-width="1.5" stroke-linecap="round" stroke-linejoin="round"/>
<path d="M6.74635 3.74531H24.2536" stroke="#323232" stroke-width="1.5" stroke-linecap="round" stroke-linejoin="round"/>
<path d="M4.24532 6.24636C4.24532 4.86507 5.36507 3.74532 6.74636 3.74532" stroke="#323232" stroke-width="1.5" stroke-linecap="round" stroke-linejoin="round"/>
<path fill-rule="evenodd" clip-rule="evenodd" d="M11.1232 21.3301V21.3301C10.0872 21.3301 9.2474 20.4903 9.2474 19.4544V19.4544C9.2474 18.4184 10.0872 17.5786 11.1232 17.5786V17.5786C12.1591 17.5786 12.999 18.4184 12.999 19.4544V19.4544C12.999 20.4903 12.1591 21.3301 11.1232 21.3301V21.3301Z" stroke="#323232" stroke-width="1.5" stroke-linecap="round" stroke-linejoin="round"/>
<path d="M9.2474 8.82493H19.2516" stroke="#323232" stroke-width="1.5" stroke-linecap="round" stroke-linejoin="round"/>
<path d="M9.2474 13.2018H15.5" stroke="#323232" stroke-width="1.5" stroke-linecap="round" stroke-linejoin="round"/>
<path fill-rule="evenodd" clip-rule="evenodd" d="M17.3758 25.6294V25.1217C17.3799 23.6772 18.5499 22.5072 19.9944 22.5031H24.1361C25.5806 22.5072 26.7506 23.6772 26.7547 25.1217V25.6294C26.7547 25.9747 26.4747 26.2547 26.1294 26.2547H18.001C17.6557 26.2547 17.3758 25.9747 17.3758 25.6294Z" stroke="#323232" stroke-width="1.5" stroke-linecap="round" stroke-linejoin="round"/>
<path fill-rule="evenodd" clip-rule="evenodd" d="M19.5642 16.8658C19.5697 15.4858 20.6919 14.3711 22.0719 14.3747C23.4519 14.3784 24.5681 15.4991 24.5663 16.8791C24.5644 18.2591 23.4452 19.3768 22.0652 19.3768C21.4002 19.3768 20.7625 19.112 20.2932 18.6408C19.8239 18.1696 19.5615 17.5308 19.5642 16.8658V16.8658Z" stroke="#323232" stroke-width="1.5" stroke-linecap="round" stroke-linejoin="round"/>
</svg>
