<svg width="31" height="30" viewBox="0 0 31 30" fill="none" xmlns="http://www.w3.org/2000/svg">
<path d="M20.5 8.75H23" stroke="#323232" stroke-width="1.5" stroke-linecap="round" stroke-linejoin="round"/>
<path d="M19.25 12.5H23" stroke="#323232" stroke-width="1.5" stroke-linecap="round" stroke-linejoin="round"/>
<path d="M9.99405 6.25V8.75" stroke="#323232" stroke-width="1.5" stroke-linecap="round" stroke-linejoin="round"/>
<path d="M7.375 12.5V9.75C7.375 9.19772 7.82272 8.75 8.375 8.75H11.375C11.9273 8.75 12.375 9.19772 12.375 9.75V12.5" stroke="#323232" stroke-width="1.5" stroke-linecap="round" stroke-linejoin="round"/>
<path d="M15.5 17.5V13.6667C15.5 13.0223 14.9777 12.5 14.3333 12.5H5.41666C4.77234 12.5 4.25001 13.0223 4.25 13.6667V26.25" stroke="#323232" stroke-width="1.5" stroke-linecap="round" stroke-linejoin="round"/>
<path d="M8 17.5H11.75" stroke="#323232" stroke-width="1.5" stroke-linecap="round" stroke-linejoin="round"/>
<path d="M8 21.25H11.75" stroke="#323232" stroke-width="1.5" stroke-linecap="round" stroke-linejoin="round"/>
<path d="M28 20.625C28 22.6731 25.765 24.861 24.49 25.9429C23.9865 26.3524 23.2648 26.3524 22.7613 25.9429C21.485 24.861 19.25 22.6731 19.25 20.625" stroke="#323232" stroke-width="1.5" stroke-linecap="round" stroke-linejoin="round"/>
<path d="M23.6237 20.3C23.4444 20.3007 23.2995 20.4465 23.3 20.6258C23.3005 20.8052 23.4461 20.9502 23.6254 20.95C23.8047 20.9498 23.95 20.8043 23.95 20.625C23.9505 20.5384 23.9162 20.4553 23.8549 20.3942C23.7936 20.3332 23.7103 20.2992 23.6237 20.3" stroke="#323232" stroke-width="1.5" stroke-linecap="round" stroke-linejoin="round"/>
<path d="M28 20.625V20.625C28 18.2088 26.0412 16.25 23.625 16.25V16.25C21.2088 16.25 19.25 18.2088 19.25 20.625V20.625" stroke="#323232" stroke-width="1.5" stroke-linecap="round" stroke-linejoin="round"/>
<path d="M3 26.25H16.75" stroke="#323232" stroke-width="1.5" stroke-linecap="round" stroke-linejoin="round"/>
<path d="M15.5 8.75V7.18912C15.5 6.40754 15.9848 5.70794 16.7167 5.43351L24.2167 2.62107C24.7925 2.40515 25.4375 2.48531 25.943 2.83559C26.4484 3.18586 26.75 3.76172 26.75 4.37667V12.5" stroke="#323232" stroke-width="1.5" stroke-linecap="round" stroke-linejoin="round"/>
</svg>
