<svg width="31" height="30" viewBox="0 0 31 30" fill="none" xmlns="http://www.w3.org/2000/svg">
<path fill-rule="evenodd" clip-rule="evenodd" d="M25.5622 17.8661C25.074 17.378 24.2826 17.378 23.7945 17.8661L20.2411 21.4194C20.0067 21.6539 19.875 21.9719 19.875 22.3034V25H22.5716C22.9031 25 23.2211 24.8683 23.4555 24.6339L27.0089 21.0805C27.2433 20.8461 27.375 20.5281 27.375 20.1966C27.375 19.8651 27.2433 19.5471 27.0089 19.3127L25.5622 17.8661Z" stroke="#323232" stroke-width="1.5" stroke-linecap="round" stroke-linejoin="round"/>
<path d="M15.5 26.25H10.5C7.04822 26.25 4.25 23.4518 4.25 20V10C4.25 6.54822 7.04822 3.75 10.5 3.75H20.5C23.9518 3.75 26.75 6.54822 26.75 10V13.75" stroke="#323232" stroke-width="1.5" stroke-linecap="round" stroke-linejoin="round"/>
<circle cx="15.5" cy="11.875" r="3.125" stroke="#323232" stroke-width="1.5" stroke-linecap="round" stroke-linejoin="round"/>
<path d="M18 18.125H12.7363C11.4945 18.1256 10.3711 18.8617 9.875 20" stroke="#323232" stroke-width="1.5" stroke-linecap="round" stroke-linejoin="round"/>
</svg>
