<svg width="31" height="30" viewBox="0 0 31 30" fill="none" xmlns="http://www.w3.org/2000/svg">
<path d="M21.75 10H10.5" stroke="#323232" stroke-width="1.5" stroke-linecap="round" stroke-linejoin="round"/>
<path d="M21.75 15H16.75" stroke="#323232" stroke-width="1.5" stroke-linecap="round" stroke-linejoin="round"/>
<path d="M21.75 20H19.25" stroke="#323232" stroke-width="1.5" stroke-linecap="round" stroke-linejoin="round"/>
<path d="M5.5 10V7.5C5.5 5.42893 7.17893 3.75 9.25 3.75H23C25.0711 3.75 26.75 5.42893 26.75 7.5V22.5C26.75 24.5711 25.0711 26.25 23 26.25H19.25" stroke="#323232" stroke-width="1.5" stroke-linecap="round" stroke-linejoin="round"/>
<path d="M11.75 18.75V15C11.75 14.3096 11.1904 13.75 10.5 13.75H5.5C4.80964 13.75 4.25 14.3096 4.25 15V25C4.25 25.6904 4.80964 26.25 5.5 26.25H9.80555" stroke="#323232" stroke-width="1.5" stroke-linecap="round" stroke-linejoin="round"/>
<rect x="8" y="18.75" width="7.5" height="7.5" rx="1" stroke="#323232" stroke-width="1.5" stroke-linecap="round" stroke-linejoin="round"/>
</svg>
